<mxfile host="app.diagrams.net" modified="2024-06-17T08:15:31.307Z" agent="Mozilla/5.0 (X11; Linux x86_64) AppleWebKit/537.36 (KHTML, like Gecko) Chrome/125.0.0.0 Safari/537.36" version="24.5.4" etag="DkO2pVYvD6ZVaAZxJkgR" type="github">
  <diagram name="Page-1" id="rURvAJwW60mSuByoT3M0">
    <mxGraphModel>
      <root>
        <mxCell id="0" />
        <mxCell id="1" parent="0" />
      </root>
    </mxGraphModel>
  </diagram>
</mxfile>
